# xmcd CD database file
#
# Track frame offsets:
#	150
#	10920
#	24132
#	35386
#	48606
#	64200
#	75638
#	77410
#	87600
#	89986
#	99048
#	109678
#	111716
#	127160
#
# Disc length: 1884 seconds
#
# Revision: 0
# Processed by: cddbd v1.5.1PL0 Copyright (c) Steve Scherf et al.
# Submitted via: CDex 1.51
#
DISCID=b4075a0e
DTITLE=Willie Heath Neal - Live From Somewhere Unknown
DYEAR=2004
DGENRE=Country
TTITLE0=Honky Tonk Night Time Man
TTITLE1=Promised Land
TTITLE2=Big River
TTITLE3=Backwoods, Country, White Trash
TTITLE4=El Diablo
TTITLE5=I'm Coming Home
TTITLE6=Willie's Jibba Jabba I
TTITLE7=Johnny Law
TTITLE8=Willie's Jibba Jabba II
TTITLE9=Madelyn's Song
TTITLE10=The Life I Know
TTITLE11=Band Intro
TTITLE12=Thanks A Lot
TTITLE13=Cocaine Blues
EXTD=YEAR: 2004
EXTT0=
EXTT1=
EXTT2=
EXTT3=
EXTT4=
EXTT5=
EXTT6=
EXTT7=
EXTT8=
EXTT9=
EXTT10=
EXTT11=
EXTT12=
EXTT13=
PLAYORDER=
